<svg width="446" height="319" fill="none" xmlns="http://www.w3.org/2000/svg"><path d="M185.323 138.232a17.717 17.717 0 0 0-14.566 1.445L8.739 233.525c-.06.035-.12.07-.179.107-8.2 5.048-10.818 14.394-6.517 23.257 5.365 11.048 24.37 21.449 47.293 25.882a133.443 133.443 0 0 0 25.326 2.386c18.247 0 40.647-3.592 65.451-15.158 19.266-8.982 37.586-28.6 49.007-52.484 12.032-25.162 14.415-50.544 6.538-69.638a17.111 17.111 0 0 0-10.335-9.645zM436.457 233.632c-.059-.037-.12-.072-.18-.107l-162.014-93.848a17.703 17.703 0 0 0-14.566-1.445 17.101 17.101 0 0 0-10.337 9.646c-7.877 19.093-5.5 44.475 6.538 69.637 11.42 23.881 29.739 43.5 49 52.484 24.808 11.566 47.204 15.158 65.451 15.158 8.499.012 16.979-.786 25.325-2.386 22.924-4.433 41.929-14.834 47.292-25.88 4.309-8.862 1.692-18.21-6.509-23.259z" fill="#7CE0D6"/><path fill-rule="evenodd" clip-rule="evenodd" d="M156.391 7.752A7.751 7.751 0 0 1 164.142 0a50.525 50.525 0 0 1 50.526 50.526 7.752 7.752 0 0 1-15.503 0 35.023 35.023 0 0 0-35.023-35.023 7.751 7.751 0 0 1-7.751-7.751zM281.853 15.504a35.022 35.022 0 0 0-35.022 35.022 7.751 7.751 0 1 1-15.503 0A50.528 50.528 0 0 1 246.126 14.8 50.517 50.517 0 0 1 281.853 0a7.751 7.751 0 0 1 7.751 7.752 7.751 7.751 0 0 1-7.751 7.752z" fill="#2C3437"/><path d="M298.93 271.423H131.477l76.068 43.9a29.884 29.884 0 0 0 29.951.017l76.099-43.919-14.665.002zM322.402 174.463H114.867v50.313h215.286v-50.313h-7.751z" fill="#2C3437"/><path d="m315.218 128.9-1.88-1.085H131.739l-1.889 1.091a30.018 30.018 0 0 0-14.979 25.881v19.676h215.286V154.79a30.086 30.086 0 0 0-14.939-25.89zM322.402 224.775H114.867v19.774a30.07 30.07 0 0 0 14.988 25.941l1.623.937h182.118l1.653-.954a30.115 30.115 0 0 0 14.899-25.92v-19.774l-7.746-.004z" fill="#FFDD0F"/><path d="M237.503 84.05a29.854 29.854 0 0 0-29.927-.005l-75.842 43.77h181.604L237.503 84.05z" fill="#2C3437"/></svg>